HIERARCHY
ROOT Hips
{
	OFFSET 0.00000 0.00000 0.00000
	CHANNELS 6 Xposition Yposition Zposition Zrotation Yrotation Xrotation 
	JOINT LHipJoint
	{
		OFFSET 0 0 0
		CHANNELS 3 Zrotation Yrotation Xrotation
		JOINT LeftHip
		{
			OFFSET 2.36090 -1.39315 1.24752
			CHANNELS 3 Zrotation Yrotation Xrotation
			JOINT LeftKnee
			{
				OFFSET 2.06810 -5.68207 0.00000
				CHANNELS 3 Zrotation Yrotation Xrotation
				JOINT LeftAnkle
				{
					OFFSET 2.46631 -6.77613 0.00000
					CHANNELS 3 Zrotation Yrotation Xrotation
					JOINT LeftToe
					{
						OFFSET 0.26031 -0.71520 1.99545
						CHANNELS 3 Zrotation Yrotation Xrotation
						End Site
						{
							OFFSET 0.00000 -0.00000 1.05957
						}
					}
				}
			}
		}
	}
	JOINT RHipJoint
	{
		OFFSET 0 0 0
		CHANNELS 3 Zrotation Yrotation Xrotation
		JOINT RightHip
		{
			OFFSET -2.25243 -1.39315 1.24752
			CHANNELS 3 Zrotation Yrotation Xrotation
			JOINT RightKnee
			{
				OFFSET -2.17343 -5.97145 0.00000
				CHANNELS 3 Zrotation Yrotation Xrotation
				JOINT RightAnkle
				{
					OFFSET -2.52372 -6.93386 0.00000
					CHANNELS 3 Zrotation Yrotation Xrotation
					JOINT RightToe
					{
						OFFSET -0.22538 -0.61923 2.11447
						CHANNELS 3 Zrotation Yrotation Xrotation
						End Site
						{
							OFFSET -0.00000 -0.00000 1.10506
						}
					}
				}
			}
		}
	}
	JOINT lowerback
	{
		OFFSET 0 0 0
		CHANNELS 3 Zrotation Yrotation Xrotation
		JOINT Chest
		{
			OFFSET 0.01594 2.13103 0.08007
			CHANNELS 3 Zrotation Yrotation Xrotation
			JOINT Chest2
			{
				OFFSET 0.01393 2.09723 0.18338
				CHANNELS 3 Zrotation Yrotation Xrotation
				JOINT lowerneck
				{
					OFFSET 0 0 0
					CHANNELS 3 Zrotation Yrotation Xrotation
					JOINT Neck
					{
						OFFSET 0.05351 1.38915 0.32494
						CHANNELS 3 Zrotation Yrotation Xrotation
						JOINT Head
						{
							OFFSET 0.00711 1.45992 -0.21666
							CHANNELS 3 Zrotation Yrotation Xrotation
							End Site
							{
								OFFSET -0.00433 1.47702 -0.11056
							}
						}
					}
				}
				JOINT LeftCollar
				{
					OFFSET 0 0 0
					CHANNELS 3 Zrotation Yrotation Xrotation
					JOINT LeftShoulder
					{
						OFFSET 2.87198 0.92249 0.11132
CHANNELS 3 Zrotation Xrotation Yrotation
						JOINT LeftElbow
						{
OFFSET 0 -5.527310 0.000000
CHANNELS 3 Zrotation Xrotation Yrotation
							JOINT LeftWrist
							{
OFFSET 0 -3.110590 0.000000
CHANNELS 3 Zrotation Xrotation Yrotation
								JOINT lhand
								{
									OFFSET 0 0 0
CHANNELS 3 Zrotation Xrotation Yrotation
									JOINT LFingers
									{
OFFSET 0 -0.419630 0.000000
CHANNELS 3 Zrotation Xrotation Yrotation
										End Site
										{
OFFSET 0 -0.338310 0.000000
										}
									}
								}
								JOINT LThumb
								{
OFFSET 0 0.000000 0.000000
CHANNELS 3 Zrotation Xrotation Yrotation
									End Site
									{
OFFSET 0 -0.343480 0.343480
									}
								}
							}
						}
					}
				}
				JOINT RightCollar
				{
					OFFSET 0 0 0
					CHANNELS 3 Zrotation Yrotation Xrotation
					JOINT RightShoulder
					{
						OFFSET -2.94710 0.68072 0.32187
CHANNELS 3 Zrotation Xrotation Yrotation
						JOINT RightElbow
						{
OFFSET 0 -5.253960 -0.000000
CHANNELS 3 Zrotation Xrotation Yrotation
							JOINT RightWrist
							{
OFFSET 0 -3.105670 0.000000
CHANNELS 3 Zrotation Xrotation Yrotation
								JOINT rhand
								{
									OFFSET 0 0 0
CHANNELS 3 Zrotation Xrotation Yrotation
									JOINT RFingers
									{
OFFSET 0 -0.498680 0.000000
CHANNELS 3 Zrotation Xrotation Yrotation
										End Site
										{
OFFSET 0 -0.402040 0.000000
										}
									}
								}
								JOINT RThumb
								{
OFFSET 0 0.000000 0.000000
CHANNELS 3 Zrotation Xrotation Yrotation
									End Site
									{
OFFSET 0 -0.408180 0.408180
									}
								}
							}
						}
					}
				}
			}
		}
	}
}
MOTION
Frames: 12
Frame Time: 0.008333333333333333
9.437107 15.006064 21.014409 -171.173068 -12.578916 -120.115689 0.000000 0.000000 0.000000 33.625045 -7.117768 -81.215902 2.591038 10.001594 28.981982 -1.712767 22.491626 -6.542458 3.364668 -11.263198 -33.172668 0.000000 0.000000 0.000000 -2.795386 20.463976 -88.678822 -3.040849 -10.760956 31.477851 0.366064 -10.651320 -4.010896 -2.185325 9.241953 -26.555034 -4.241973 2.557686 4.007839 -1.389577 3.142258 -0.955061 0.720673 1.632484 -3.383624 -3.230324 6.874664 -42.226944 -5.859530 6.707172 -8.186966 -0.755236 1.116532 3.132867 0.000000 0.000000 0.000000 -1.811628 -42.902031 -62.614270 41.785473 -49.092787 19.778353 33.312990 -76.331601 1.887796 0.000000 0.000000 0.000000 -7.125000 0.000000 0.000000 5.184868 27.709532 2.187653 0.000000 0.000000 0.000000 -19.947680 -50.612194 30.286988 -45.583693 -51.051013 -22.691854 -14.652927 -27.662119 29.667475 0.000000 0.000000 0.000000 7.125000 0.000000 0.000000 18.798969 59.472131 -6.791226
9.439384 15.031457 20.999897 -171.198566 -12.725328 -120.934299 0.000000 0.000000 0.000000 33.294851 -7.564834 -80.318801 2.535173 9.901528 28.658429 -1.678218 22.283950 -6.413305 3.382760 -11.290295 -33.265293 0.000000 0.000000 0.000000 -2.449702 20.534712 -87.518342 -3.023213 -10.732559 31.383286 0.380330 -10.855492 -4.187434 -2.182216 9.235640 -26.535392 -4.268121 2.542724 4.146632 -1.382876 3.112358 -0.953043 0.737750 1.618716 -3.460217 -3.176493 6.855166 -42.137218 -5.848182 6.658561 -8.217779 -0.765508 1.100442 3.115732 0.000000 0.000000 0.000000 -1.450327 -42.226282 -62.940482 42.421268 -49.440362 20.260144 33.296467 -76.592282 1.886980 0.000000 0.000000 0.000000 -7.125000 0.000000 0.000000 5.172243 27.711030 2.182013 0.000000 0.000000 0.000000 -19.840232 -49.587791 30.391348 -46.599840 -51.527740 -23.484960 -14.796190 -27.714833 29.731006 0.000000 0.000000 0.000000 7.125000 0.000000 0.000000 18.693586 59.565048 -6.793256
9.441215 15.059392 20.983799 -171.218845 -12.877994 -121.812614 0.000000 0.000000 0.000000 32.936966 -8.036159 -79.335419 2.473971 9.790355 28.300571 -1.642864 22.069152 -6.275902 3.402515 -11.319752 -33.365888 0.000000 0.000000 0.000000 -2.071657 20.612539 -86.247302 -2.997367 -10.690796 31.244088 0.396401 -11.080484 -4.366277 -2.177226 9.225908 -26.504509 -4.290654 2.530423 4.334129 -1.362656 3.084347 -0.936060 0.764892 1.606013 -3.549431 -3.144958 6.824578 -42.051103 -5.818039 6.607589 -8.236590 -0.766330 1.085729 3.101269 0.000000 0.000000 0.000000 -1.094410 -41.548916 -63.267088 43.080184 -49.791931 20.762121 33.393526 -76.804300 1.894533 0.000000 0.000000 0.000000 -7.125000 0.000000 0.000000 5.246103 27.699149 2.214965 0.000000 0.000000 0.000000 -19.761255 -48.562848 30.508893 -47.657972 -52.004748 -24.316287 -14.948184 -27.748012 29.794628 0.000000 0.000000 0.000000 7.125000 0.000000 0.000000 18.578611 59.660335 -6.792125
9.442369 15.089564 20.966039 -171.230686 -13.032555 -122.753125 0.000000 0.000000 0.000000 32.549227 -8.527887 -78.261517 2.408588 9.669588 27.913437 -1.606798 21.847079 -6.137564 3.422441 -11.349374 -33.467461 0.000000 0.000000 0.000000 -1.657411 20.698616 -84.862327 -2.962935 -10.634705 31.057643 0.414082 -11.322583 -4.548250 -2.168740 9.209060 -26.451547 -4.309361 2.523051 4.577632 -1.333615 3.060396 -0.906094 0.796564 1.595393 -3.657158 -3.143932 6.775359 -41.987889 -5.756914 6.549889 -8.226213 -0.752718 1.071081 3.095762 0.000000 0.000000 0.000000 -0.739823 -40.874184 -63.600573 43.755553 -50.143213 21.279297 33.501731 -76.952057 1.897479 0.000000 0.000000 0.000000 -7.125000 0.000000 0.000000 5.328968 27.692420 2.251065 0.000000 0.000000 0.000000 -19.695878 -47.535755 30.638846 -48.759586 -52.480878 -25.187412 -15.119633 -27.755211 29.845151 0.000000 0.000000 0.000000 7.125000 0.000000 0.000000 18.433440 59.747853 -6.775554
9.443111 15.122372 20.945950 -171.235189 -13.186554 -123.776529 0.000000 0.000000 0.000000 32.123665 -9.049509 -77.075852 2.340616 9.541960 27.505939 -1.569810 21.614786 -6.008694 3.442804 -11.379491 -33.570596 0.000000 0.000000 0.000000 -1.192397 20.791082 -83.336802 -2.920465 -10.565060 30.826825 0.432764 -11.572627 -4.740117 -2.156997 9.185667 -26.377883 -4.331858 2.522840 4.903723 -1.293168 3.041776 -0.859067 0.838527 1.587774 -3.794861 -3.149423 6.720557 -41.933772 -5.686554 6.491906 -8.193737 -0.734947 1.057732 3.097891 0.000000 0.000000 0.000000 -0.392026 -40.210938 -63.943099 44.434180 -50.487283 21.801594 33.599439 -77.046509 1.889948 0.000000 0.000000 0.000000 -7.125000 0.000000 0.000000 5.404405 27.698495 2.282373 0.000000 0.000000 0.000000 -19.644055 -46.505557 30.779583 -49.903905 -52.954290 -26.098056 -15.316237 -27.732381 29.891502 0.000000 0.000000 0.000000 7.125000 0.000000 0.000000 18.258022 59.837502 -6.747709
9.443099 15.155632 20.924870 -171.231314 -13.333962 -124.835486 0.000000 0.000000 0.000000 31.681717 -9.575553 -75.834592 2.273034 9.412751 27.095386 -1.533862 21.385193 -5.895346 3.460148 -11.405070 -33.658441 0.000000 0.000000 0.000000 -0.704443 20.884844 -81.742172 -2.871951 -10.484653 30.561051 0.452058 -11.825885 -4.933672 -2.141685 9.155069 -26.281661 -4.355570 2.527718 5.261606 -1.245822 3.028298 -0.807413 0.886747 1.582787 -3.946289 -3.169711 6.656601 -41.888810 -5.598453 6.432121 -8.140423 -0.709014 1.045833 3.106431 0.000000 0.000000 0.000000 -0.051498 -39.560218 -64.287854 45.109227 -50.820811 22.323644 33.705226 -77.119137 1.887536 0.000000 0.000000 0.000000 -7.125000 0.000000 0.000000 5.485683 27.698121 2.317042 0.000000 0.000000 0.000000 -19.601715 -45.477326 30.932598 -51.085832 -53.421410 -27.044433 -15.532858 -27.675165 29.944064 0.000000 0.000000 0.000000 7.125000 0.000000 0.000000 18.065451 59.937775 -6.717109
9.442147 15.187713 20.903690 -171.218641 -13.471976 -125.894908 0.000000 0.000000 0.000000 31.238845 -10.087930 -74.583788 2.208635 9.287536 26.699112 -1.499829 21.163831 -5.799046 3.474575 -11.426257 -33.731278 0.000000 0.000000 0.000000 -0.202413 20.970143 -80.134513 -2.819628 -10.397046 30.272399 0.470721 -12.066623 -5.113476 -2.127857 9.127352 -26.194602 -4.376879 2.536664 5.611108 -1.196731 3.020566 -0.758976 0.935216 1.580691 -4.096555 -3.163788 6.605296 -41.822671 -5.520618 6.379540 -8.087226 -0.689477 1.037474 3.114670 0.000000 0.000000 0.000000 0.286378 -38.908410 -64.624627 45.792265 -51.149563 22.854429 33.872268 -77.206855 1.919303 0.000000 0.000000 0.000000 -7.125000 0.000000 0.000000 5.611251 27.655042 2.376332 0.000000 0.000000 0.000000 -19.563753 -44.454042 31.088952 -52.304622 -53.880678 -28.026179 -15.744021 -27.587157 30.025715 0.000000 0.000000 0.000000 7.125000 0.000000 0.000000 17.899292 60.064827 -6.707397
9.440172 15.217332 20.882981 -171.198269 -13.599422 -126.925541 0.000000 0.000000 0.000000 30.808972 -10.572669 -73.365875 2.150094 9.171808 26.334333 -1.468204 20.953738 -5.725120 3.485198 -11.441860 -33.784920 0.000000 0.000000 0.000000 0.306687 21.038742 -78.561997 -2.765598 -10.305489 29.971873 0.487582 -12.280031 -5.270004 -2.118306 9.108267 -26.134638 -4.392944 2.547042 5.916462 -1.147519 3.017586 -0.718234 0.982398 1.580794 -4.229877 -3.140973 6.562170 -41.743783 -5.445688 6.331763 -8.032052 -0.672790 1.031789 3.123367 0.000000 0.000000 0.000000 0.617179 -38.260220 -64.946688 46.477769 -51.471052 23.389513 34.029088 -77.309775 1.966248 0.000000 0.000000 0.000000 -7.125000 0.000000 0.000000 5.727680 27.593907 2.434386 0.000000 0.000000 0.000000 -19.525057 -43.439487 31.246074 -53.561562 -54.331468 -29.044578 -15.932449 -27.473160 30.139968 0.000000 0.000000 0.000000 7.125000 0.000000 0.000000 17.780912 60.217875 -6.726500
9.437092 15.243911 20.863172 -171.171347 -13.715724 -127.906508 0.000000 0.000000 0.000000 30.399550 -11.021883 -72.210124 2.098896 9.068956 26.011366 -1.438877 20.754935 -5.672893 3.493213 -11.453623 -33.825364 0.000000 0.000000 0.000000 0.810600 21.087702 -77.056677 -2.711325 -10.212232 29.666980 0.502439 -12.464525 -5.406075 -2.110249 9.092051 -26.083680 -4.402528 2.556402 6.155954 -1.098807 3.017538 -0.689988 1.027937 1.582129 -4.338740 -3.115379 6.521343 -41.657576 -5.362403 6.286988 -7.972394 -0.653288 1.029058 3.132649 0.000000 0.000000 0.000000 0.938343 -37.623575 -65.250899 47.157689 -51.781680 23.922562 34.139215 -77.428254 2.013831 0.000000 0.000000 0.000000 -7.125000 0.000000 0.000000 5.808068 27.533218 2.477215 0.000000 0.000000 0.000000 -19.483350 -42.433376 31.406472 -54.859952 -54.773596 -30.102394 -16.097418 -27.340466 30.281661 0.000000 0.000000 0.000000 7.125000 0.000000 0.000000 17.707995 60.391675 -6.771536
9.432912 15.267926 20.844119 -171.137409 -13.818533 -128.845755 0.000000 0.000000 0.000000 30.007090 -11.440019 -71.108766 2.055223 8.980002 25.732872 -1.411487 20.565306 -5.644980 3.499488 -11.462775 -33.856969 0.000000 0.000000 0.000000 1.309640 21.119698 -75.610307 -2.657230 -10.118138 29.360415 0.515234 -12.621729 -5.525956 -2.102640 9.076679 -26.035379 -4.407917 2.565848 6.338051 -1.050118 3.021232 -0.672922 1.073080 1.585288 -4.426826 -3.069266 6.492992 -41.548464 -5.283708 6.251086 -7.915330 -0.637252 1.031317 3.140060 0.000000 0.000000 0.000000 1.244191 -37.011271 -65.541474 47.816595 -52.075085 24.441255 34.189571 -77.562156 2.057633 0.000000 0.000000 0.000000 -7.125000 0.000000 0.000000 5.842969 27.478977 2.499717 0.000000 0.000000 0.000000 -19.439721 -41.431892 31.570842 -56.204339 -55.207189 -31.203572 -16.235317 -27.199228 30.454155 0.000000 0.000000 0.000000 7.125000 0.000000 0.000000 17.687594 60.588622 -6.846777
9.427676 15.290028 20.825432 -171.097028 -13.907572 -129.757870 0.000000 0.000000 0.000000 29.624867 -11.835093 -70.043710 2.018092 8.903524 25.494062 -1.385575 20.381941 -5.642131 3.504466 -11.470062 -33.882141 0.000000 0.000000 0.000000 1.806497 21.138148 -74.200842 -2.602632 -10.022034 29.048342 0.526369 -12.757156 -5.629663 -2.096929 9.065147 -25.999236 -4.412703 2.575362 6.477526 -0.997620 3.027798 -0.662849 1.123284 1.590008 -4.498555 -2.991421 6.485029 -41.410303 -5.221213 6.230100 -7.862534 -0.629509 1.040445 3.145519 0.000000 0.000000 0.000000 1.527730 -36.435554 -65.822427 48.442145 -52.346719 24.935569 34.161556 -77.699876 2.086166 0.000000 0.000000 0.000000 -7.125000 0.000000 0.000000 5.819222 27.445602 2.494062 0.000000 0.000000 0.000000 -19.399349 -40.434606 31.743919 -57.597536 -55.631671 -32.350671 -16.289564 -27.080623 30.701913 0.000000 0.000000 0.000000 7.125000 0.000000 0.000000 17.816022 60.837065 -7.004510
9.421353 15.310431 20.807070 -171.053793 -13.985022 -130.643684 0.000000 0.000000 0.000000 29.249320 -12.211442 -69.011154 1.985895 8.836594 25.285558 -1.360910 20.203912 -5.657821 3.509143 -11.476968 -33.905745 0.000000 0.000000 0.000000 2.293989 21.143726 -72.820725 -2.546375 -9.921587 28.723347 0.536774 -12.881484 -5.717402 -2.092418 9.055904 -25.970380 -4.416053 2.583040 6.578665 -0.940747 3.034587 -0.659772 1.178665 1.594891 -4.556162 -2.884916 6.496715 -41.245539 -5.174604 6.224588 -7.812288 -0.629493 1.056771 3.149572 0.000000 0.000000 0.000000 1.793982 -35.893744 -66.095412 49.045264 -52.602390 25.413883 34.089511 -77.833158 2.094316 0.000000 0.000000 0.000000 -7.125000 0.000000 0.000000 5.763450 27.438119 2.470936 0.000000 0.000000 0.000000 -19.364048 -39.442127 31.931495 -59.043090 -56.046309 -33.546765 -16.231851 -27.006488 31.050161 0.000000 0.000000 0.000000 7.125000 0.000000 0.000000 18.146603 61.153296 -7.276305
